<svg width="32" height="32" viewBox="0 0 32 32" fill="none" xmlns="http://www.w3.org/2000/svg">
<circle cx="16" cy="16" r="16" fill="#F0F0F0"/>
<g opacity="0.3">
<path d="M24 24V22C24 20.9391 23.5786 19.9217 22.8284 19.1716C22.0783 18.4214 21.0609 18 20 18H12C10.9391 18 9.92172 18.4214 9.17157 19.1716C8.42143 19.9217 8 20.9391 8 22V24" stroke="#333333" stroke-width="1.5" stroke-linecap="round" stroke-linejoin="round"/>
<path d="M16 14C18.2091 14 20 12.2091 20 10C20 7.79086 18.2091 6 16 6C13.7909 6 12 7.79086 12 10C12 12.2091 13.7909 14 16 14Z" stroke="#333333" stroke-width="1.5" stroke-linecap="round" stroke-linejoin="round"/>
</g>
</svg>
